<svg width="42" height="43" viewBox="0 0 42 43" fill="none" xmlns="http://www.w3.org/2000/svg">
<path fill-rule="evenodd" clip-rule="evenodd" d="M29.9597 22.4752C27.6217 23.4447 25.0981 24.0426 22.4586 24.1976C22.0034 24.2243 21.5447 24.2378 21.083 24.2378C20.6213 24.2378 20.1626 24.2243 19.7074 24.1976C17.0673 24.0426 14.5431 23.4444 12.2047 22.4745C7.2974 20.4392 3.2083 16.7669 0.583008 12.1189C4.67499 4.87421 12.3232 0 21.083 0C29.8428 0 37.491 4.87421 41.583 12.1189C38.9574 16.7674 34.8677 20.44 29.9597 22.4752Z" fill="white"/>
<path d="M12.2044 24.3614C11.639 24.1269 11.0845 23.8707 10.5419 23.5938C8.77841 24.8661 7.28761 26.4507 6.16504 28.2585C8.07311 31.3315 11.0451 33.7593 14.6117 35.1049C16.3113 35.7462 18.1458 36.1416 20.0647 36.2441H22.0643C23.9826 36.1417 27.3545 38.0881 22.4583 43.0001C26.0254 41.6546 34.0556 31.3318 35.9639 28.2585C34.8445 26.4558 33.359 24.8751 31.6021 23.6046C31.0657 23.8776 30.5178 24.1304 29.9593 24.362C27.6214 25.3315 25.0978 25.9295 22.4583 26.0844C22.0031 26.1111 21.5444 26.1246 21.0827 26.1246C20.6209 26.1246 20.1623 26.1111 19.7071 26.0844C17.0669 25.9294 14.5428 25.3312 12.2044 24.3614Z" fill="white"/>
<rect x="11.1978" y="9.01855" width="19.8135" height="7.24719" rx="3.62359" fill="#162550"/>
<ellipse cx="26.5683" cy="12.6021" rx="1.29731" ry="1.32865" fill="#04FED1"/>
<ellipse cx="21.0644" cy="30.4786" rx="1.29731" ry="1.32865" fill="#162550"/>
<ellipse cx="15.8759" cy="12.6021" rx="1.29731" ry="1.32865" fill="#04FED1"/>
<ellipse cx="15.8759" cy="30.4786" rx="1.29731" ry="1.32865" fill="#162550"/>
<ellipse cx="26.2543" cy="30.4786" rx="1.29731" ry="1.32865" fill="#162550"/>
</svg>
